<svg xmlns="http://www.w3.org/2000/svg" viewBox="0 0 457.9 101"><defs><style>.cls-1{fill:#603813;}.cls-2{fill:#ab7320;}.cls-3{fill:#2d2015;}</style></defs><title>Asset 1</title><g id="Layer_2" data-name="Layer 2"><g id="Layer_1-2" data-name="Layer 1"><path class="cls-1" d="M410.7,101H47.3A47.33,47.33,0,0,1,0,53.7V47.3A47.33,47.33,0,0,1,47.3,0H410.6a47.33,47.33,0,0,1,47.3,47.3v6.4A47.18,47.18,0,0,1,410.7,101Z"/><path class="cls-2" d="M403,101H47.3A47.33,47.33,0,0,1,0,53.7H0A47.33,47.33,0,0,1,47.3,6.4H402.9a47.33,47.33,0,0,1,47.3,47.3h0A47.18,47.18,0,0,1,403,101Z"/><path class="cls-1" d="M398.8,91c-37.4,2.1-74.8,3.2-112.2,4l-14,.3-14,.2-28.1.4-56.1.3c-18.7-.1-37.4-.1-56.1-.3l-28.1-.4-14-.2-14-.3-7-.1c-2.4-.1-4.6,0-7.2-.3a42.15,42.15,0,0,1-14.8-3.9A42.9,42.9,0,0,1,12.3,69.6,40.71,40.71,0,0,1,8.7,55.2l-.1-3.7c0-1.2,0-2.3.1-3.6a35.9,35.9,0,0,1,1.2-7.3,30.88,30.88,0,0,1,2.6-6.8,35.5,35.5,0,0,1,3.8-6.2,28.39,28.39,0,0,1,11.2-8.8h0c.2-.1.3,0,.4.2s0,.3-.1.4a28.2,28.2,0,0,0-10.3,9.1,32.89,32.89,0,0,0-3.4,6.1,36.52,36.52,0,0,0-2.2,6.6c-1.1,4.5-1,9.2-.7,13.9A39.85,39.85,0,0,0,34.8,87.2a41.06,41.06,0,0,0,13.4,3.2c2.3.2,4.7.1,7,.1h7l112.2-.1,224.5.3a.27.27,0,0,1,.3.3c-.1-.1-.2,0-.4,0Z"/><path class="cls-3" d="M143.1,43.2c0-1-.5-1.7-1-1.7h-7.2V61c0,5.9-3.7,10-8.7,10h-6.6V61h4.1c.6,0,1.1-.7,1.1-1.6V41.5h-3.7v-10h22c5.5,0,10,5.5,10,11.7V71.1h-10V43.2Z"/><path class="cls-3" d="M161.8,41.5h-4.6v-10h14.7V71.1H161.8V41.5Z"/><path class="cls-3" d="M199.2,71c-2.2-4.3-4.2-8.6-6.6-12.7-1-1.8-2.8-5.4-4-7.1l-1,19.8H177.5l1.1-18.8A18.56,18.56,0,0,1,182.5,42c-2.4-3.6-4.6-7.1-7.1-10.6h11.8c3.2,4.3,6.3,8.8,9.1,13.4a2.76,2.76,0,0,0,.8-1.8l.6-11.6h10.1c-.2,4.4-.5,8.9-.8,13.3s-1.9,7.5-5.2,9.7L210.4,71Z"/><path class="cls-3" d="M227,44a2.36,2.36,0,0,0-2.1-2.5H212v-10h15.1c5.3,0,9.9,5.3,9.9,11.7V71.1H226.9L227,44Z"/><path class="cls-3" d="M245.8,41.5h-4.6v-10h14.7V71.1H245.8V41.5Z"/><path class="cls-3" d="M280.6,41.5H262.3v-10h28.4V71.1H280.6V41.5Zm-17.9,6.8L272.8,47V71H262.7Z"/><path class="cls-3" d="M301.6,71l9.9-29.5H295.6v-20l10.1-1.4V31.4h17.1v7.9L312.2,71Z"/></g></g></svg>